HIERARCHY
ROOT hips
{
	OFFSET 0.000000 104.274902 0.000000
	CHANNELS 6 Xposition Yposition Zposition Xrotation Yrotation Zrotation
	JOINT spine
	{
		OFFSET 0.000000 10.181549 0.131524
		CHANNELS 6 Xposition Yposition Zposition Xrotation Yrotation Zrotation
		JOINT chest
		{
			OFFSET 0.000000 9.893990 -1.470706
			CHANNELS 3 Xrotation Yrotation Zrotation
			JOINT upperChest
			{
				OFFSET 0.000000 9.220787 -1.370637
				CHANNELS 3 Xrotation Yrotation Zrotation
				JOINT neck
				{
					OFFSET 0.000000 16.740372 -2.049022
					CHANNELS 6 Xposition Yposition Zposition Xrotation Yrotation Zrotation
					JOINT head
					{
						OFFSET 0.000000 9.617859 1.684976
						CHANNELS 6 Xposition Yposition Zposition Xrotation Yrotation Zrotation
						JOINT headEnd
						{
							OFFSET 0.000000 22.037384 7.501072
							CHANNELS 6 Xposition Yposition Zposition Xrotation Yrotation Zrotation
							End Site
							{
								OFFSET 0.000000 23.106567 -2.828246
							}
						}
					}
				}
				JOINT rightShoulder
				{
					OFFSET -4.570000 11.014877 -2.160840
					CHANNELS 6 Xposition Yposition Zposition Xrotation Yrotation Zrotation
					JOINT rightUpperArm
					{
						OFFSET -10.592867 -0.524796 -2.232105
						CHANNELS 3 Xrotation Yrotation Zrotation
						JOINT rightLowerArm
						{
							OFFSET -27.841497 0.000000 -0.000002
							CHANNELS 3 Xrotation Yrotation Zrotation
							JOINT rightHand
							{
								OFFSET -28.328812 0.000000 -0.000001
								CHANNELS 3 Xrotation Yrotation Zrotation
								JOINT rightThumbProximal
								{
									OFFSET -2.464798 -1.573990 2.681911
									CHANNELS 6 Xposition Yposition Zposition Xrotation Yrotation Zrotation
									JOINT rightThumbIntermediate
									{
										OFFSET -3.244781 -1.873383 1.873376
										CHANNELS 3 Xrotation Yrotation Zrotation
										JOINT rightThumbDistal
										{
											OFFSET -2.646263 -1.527817 1.527818
											CHANNELS 6 Xposition Yposition Zposition Xrotation Yrotation Zrotation
											JOINT rightHandThumb4
											{
												OFFSET -1.994591 -1.151581 1.151575
												CHANNELS 6 Xposition Yposition Zposition Xrotation Yrotation Zrotation
												End Site
												{
													OFFSET -1.860176 -1.142715 1.365483
												}
											}
										}
									}
								}
								JOINT rightIndexProximal
								{
									OFFSET -9.108299 -0.517883 2.259803
									CHANNELS 6 Xposition Yposition Zposition Xrotation Yrotation Zrotation
									JOINT rightIndexIntermediate
									{
										OFFSET -3.699997 0.000000 0.000000
										CHANNELS 3 Xrotation Yrotation Zrotation
										JOINT rightIndexDistal
										{
											OFFSET -2.850006 0.000000 0.000000
											CHANNELS 3 Xrotation Yrotation Zrotation
											JOINT rightHandIndex4
											{
												OFFSET -2.772194 0.000000 0.000000
												CHANNELS 3 Xrotation Yrotation Zrotation
												End Site
												{
													OFFSET -2.772202 0.000000 -0.000484
												}
											}
										}
									}
								}
								JOINT rightMiddleProximal
								{
									OFFSET -9.532501 0.000000 -0.000000
									CHANNELS 6 Xposition Yposition Zposition Xrotation Yrotation Zrotation
									JOINT rightMiddleIntermediate
									{
										OFFSET -3.699997 0.000000 0.000000
										CHANNELS 3 Xrotation Yrotation Zrotation
										JOINT rightMiddleDistal
										{
											OFFSET -2.949997 0.000000 0.000000
											CHANNELS 3 Xrotation Yrotation Zrotation
											JOINT rightHandMiddle4
											{
												OFFSET -2.946594 0.000000 0.000000
												CHANNELS 3 Xrotation Yrotation Zrotation
												End Site
												{
													OFFSET -2.946602 0.000000 -0.000982
												}
											}
										}
									}
								}
								JOINT rightRingProximal
								{
									OFFSET -9.103600 -0.043106 -1.865100
									CHANNELS 6 Xposition Yposition Zposition Xrotation Yrotation Zrotation
									JOINT rightRingIntermediate
									{
										OFFSET -3.379303 0.000000 0.000000
										CHANNELS 3 Xrotation Yrotation Zrotation
										JOINT rightRingDistal
										{
											OFFSET -2.889694 0.000000 0.000000
											CHANNELS 3 Xrotation Yrotation Zrotation
											JOINT rightHandRing4
											{
												OFFSET -2.638802 0.000000 0.000000
												CHANNELS 3 Xrotation Yrotation Zrotation
												End Site
												{
													OFFSET -2.638802 0.000000 0.004218
												}
											}
										}
									}
								}
								JOINT rightLittleProximal
								{
									OFFSET -8.076698 -0.486725 -3.806299
									CHANNELS 6 Xposition Yposition Zposition Xrotation Yrotation Zrotation
									JOINT rightLittleIntermediate
									{
										OFFSET -3.600006 0.000000 0.000000
										CHANNELS 3 Xrotation Yrotation Zrotation
										JOINT rightLittleDistal
										{
											OFFSET -2.099998 0.000000 0.000000
											CHANNELS 3 Xrotation Yrotation Zrotation
											JOINT rightHandPinky4
											{
												OFFSET -2.115791 0.000000 0.000000
												CHANNELS 3 Xrotation Yrotation Zrotation
												End Site
												{
													OFFSET -2.115799 0.000000 0.000174
												}
											}
										}
									}
								}
							}
						}
					}
				}
				JOINT leftShoulder
				{
					OFFSET 4.570400 11.014679 -2.160816
					CHANNELS 6 Xposition Yposition Zposition Xrotation Yrotation Zrotation
					JOINT leftUpperArm
					{
						OFFSET 10.592373 -0.524597 -2.232116
						CHANNELS 3 Xrotation Yrotation Zrotation
						JOINT leftLowerArm
						{
							OFFSET 27.841488 0.000000 0.000001
							CHANNELS 3 Xrotation Yrotation Zrotation
							JOINT leftHand
							{
								OFFSET 28.328808 0.000000 -0.000000
								CHANNELS 3 Xrotation Yrotation Zrotation
								JOINT leftThumbProximal
								{
									OFFSET 2.466103 -1.576202 2.681698
									CHANNELS 6 Xposition Yposition Zposition Xrotation Yrotation Zrotation
									JOINT leftThumbIntermediate
									{
										OFFSET 3.243317 -1.872528 1.872530
										CHANNELS 3 Xrotation Yrotation Zrotation
										JOINT leftThumbDistal
										{
											OFFSET 2.647881 -1.528763 1.528754
											CHANNELS 6 Xposition Yposition Zposition Xrotation Yrotation Zrotation
											JOINT leftHandThumb4
											{
												OFFSET 1.998924 -1.154083 1.154080
												CHANNELS 6 Xposition Yposition Zposition Xrotation Yrotation Zrotation
												End Site
												{
													OFFSET 1.884041 -1.149155 1.337651
												}
											}
										}
									}
								}
								JOINT leftIndexProximal
								{
									OFFSET 9.109299 -0.518005 2.259900
									CHANNELS 6 Xposition Yposition Zposition Xrotation Yrotation Zrotation
									JOINT leftIndexIntermediate
									{
										OFFSET 3.699997 0.000000 0.000000
										CHANNELS 3 Xrotation Yrotation Zrotation
										JOINT leftIndexDistal
										{
											OFFSET 2.850006 0.000000 0.000000
											CHANNELS 3 Xrotation Yrotation Zrotation
											JOINT leftHandIndex4
											{
												OFFSET 2.774895 0.000000 0.000000
												CHANNELS 3 Xrotation Yrotation Zrotation
												End Site
												{
													OFFSET 2.774902 0.000000 -0.000072
												}
											}
										}
									}
								}
								JOINT leftMiddleProximal
								{
									OFFSET 9.533401 0.000000 0.000000
									CHANNELS 6 Xposition Yposition Zposition Xrotation Yrotation Zrotation
									JOINT leftMiddleIntermediate
									{
										OFFSET 3.699997 0.000000 0.000000
										CHANNELS 3 Xrotation Yrotation Zrotation
										JOINT leftMiddleDistal
										{
											OFFSET 2.949997 0.000000 0.000000
											CHANNELS 3 Xrotation Yrotation Zrotation
											JOINT leftHandMiddle4
											{
												OFFSET 2.952896 0.000000 0.000000
												CHANNELS 3 Xrotation Yrotation Zrotation
												End Site
												{
													OFFSET 2.952904 0.000000 0.000165
												}
											}
										}
									}
								}
								JOINT leftRingProximal
								{
									OFFSET 9.104500 -0.042999 -1.865101
									CHANNELS 6 Xposition Yposition Zposition Xrotation Yrotation Zrotation
									JOINT leftRingIntermediate
									{
										OFFSET 3.149994 0.000000 0.000000
										CHANNELS 3 Xrotation Yrotation Zrotation
										JOINT leftRingDistal
										{
											OFFSET 2.950005 0.000000 0.000000
											CHANNELS 3 Xrotation Yrotation Zrotation
											JOINT leftHandRing4
											{
												OFFSET 2.644302 0.000000 0.000000
												CHANNELS 3 Xrotation Yrotation Zrotation
												End Site
												{
													OFFSET 2.644302 0.000000 0.000083
												}
											}
										}
									}
								}
								JOINT leftLittleProximal
								{
									OFFSET 8.077805 -0.486893 -3.806302
									CHANNELS 6 Xposition Yposition Zposition Xrotation Yrotation Zrotation
									JOINT leftLittleIntermediate
									{
										OFFSET 3.600006 0.000000 0.000000
										CHANNELS 3 Xrotation Yrotation Zrotation
										JOINT leftLittleDistal
										{
											OFFSET 2.099998 0.000000 0.000000
											CHANNELS 3 Xrotation Yrotation Zrotation
											JOINT leftHandPinky4
											{
												OFFSET 2.125496 0.000000 0.000000
												CHANNELS 3 Xrotation Yrotation Zrotation
												End Site
												{
													OFFSET 2.125504 0.000000 -0.001254
												}
											}
										}
									}
								}
							}
						}
					}
				}
			}
		}
	}
	JOINT rightUpperLeg
	{
		OFFSET -8.207800 -6.751701 -1.599544
		CHANNELS 6 Xposition Yposition Zposition Xrotation Yrotation Zrotation
		JOINT rightLowerLeg
		{
			OFFSET 0.000004 -44.370152 0.345934
			CHANNELS 3 Xrotation Yrotation Zrotation
			JOINT rightFoot
			{
				OFFSET 0.000004 -44.423664 -3.043535
				CHANNELS 3 Xrotation Yrotation Zrotation
				JOINT rightToes
				{
					OFFSET 0.000001 -8.728691 10.710592
					CHANNELS 3 Xrotation Yrotation Zrotation
					JOINT rightToesEnd
					{
						OFFSET 0.000000 -0.000665 9.278101
						CHANNELS 3 Xrotation Yrotation Zrotation
						End Site
						{
							OFFSET 0.000000 -0.000665 9.278103
						}
					}
				}
			}
		}
	}
	JOINT leftUpperLeg
	{
		OFFSET 8.207800 -6.751701 -1.599544
		CHANNELS 6 Xposition Yposition Zposition Xrotation Yrotation Zrotation
		JOINT leftLowerLeg
		{
			OFFSET 0.000004 -44.370037 0.346940
			CHANNELS 3 Xrotation Yrotation Zrotation
			JOINT leftFoot
			{
				OFFSET 0.000004 -44.423611 -3.044388
				CHANNELS 3 Xrotation Yrotation Zrotation
				JOINT leftToes
				{
					OFFSET 0.000001 -8.728690 10.710592
					CHANNELS 3 Xrotation Yrotation Zrotation
					JOINT leftToesEnd
					{
						OFFSET 0.000000 -0.000680 9.278101
						CHANNELS 3 Xrotation Yrotation Zrotation
						End Site
						{
							OFFSET 0.000000 -0.000680 9.278101
						}
					}
				}
			}
		}
	}
}
MOTION
Frames: 4
Frame Time: 0.033333
0.995873 93.439636 -2.231916 -14.952568 11.118739 -1.272508 0.000000 10.181566 0.131519 1.870860 0.156110 -0.671400 3.717975 -0.850189 3.477123 3.708185 -0.892903 3.478358 -0.000001 16.740360 -2.049020 3.397820 -0.177433 -3.335148 -0.000001 9.617863 1.684974 -0.861467 -0.115030 -16.153495 -0.000008 22.037384 7.501076 -0.000002 -0.000000 0.000002 -4.570002 11.014873 -2.160840 0.931188 1.208943 -0.096234 -53.557805 16.373125 65.972702 0.000367 101.267547 -0.000301 54.780931 23.205832 -89.999975 -2.464794 -1.573986 2.681914 24.186219 9.109235 -18.916279 4.637199 -8.634140 -0.225375 -2.646262 -1.527821 1.527821 -1.273762 0.137314 -2.094876 -1.994587 -1.151583 1.151575 -0.000000 -0.000005 0.000001 -9.108285 -0.517869 2.259811 0.242893 1.825227 -15.158510 -0.000008 0.000000 0.000005 0.000012 0.000001 0.000004 -0.000002 0.000001 -0.000001 -9.532507 0.000005 -0.000005 0.242892 1.825228 -15.158515 -0.000006 0.000001 0.000006 0.000009 -0.000003 0.000004 -0.000003 -0.000000 0.000001 -9.103601 -0.043091 -1.865099 0.242893 1.825227 -15.158512 -0.000005 0.000009 0.000071 0.000003 0.000007 -0.000002 -0.000003 -0.000003 0.000000 -8.076696 -0.486713 -3.806299 0.242883 1.825232 -15.158519 -0.000001 0.000002 0.000010 0.000001 0.000007 -0.000001 -0.000000 0.000002 0.000003 4.570400 11.014668 -2.160814 1.063629 -2.585341 -10.390359 -32.711955 -8.937861 -47.849013 0.000002 -110.537084 0.000015 37.980541 -6.588122 89.999989 2.466102 -1.576195 2.681696 12.206214 3.273323 25.036741 3.939045 7.948721 0.746786 2.647882 -1.528731 1.528749 -0.579470 1.575005 2.538714 1.998924 -1.154065 1.154069 0.000001 0.000004 0.000003 9.109314 -0.518007 2.259895 0.091032 -1.118120 9.306969 -0.000002 0.000002 -0.000018 0.000000 0.000004 -0.000001 -0.000001 0.000004 -0.000001 9.533412 0.000001 -0.000003 0.091340 -1.120026 9.322944 0.000000 0.001926 -0.015979 0.000000 0.000003 -0.000006 -0.000001 0.000000 -0.000000 9.104511 -0.042992 -1.865102 0.091032 -1.118120 9.306969 -0.000002 0.000003 -0.000236 0.000003 0.000000 -0.000012 -0.000002 0.000002 0.000001 8.077819 -0.486887 -3.806302 -0.582769 2.879837 9.827756 -0.018092 -4.054253 -0.511073 0.000000 0.000001 0.000002 0.000001 -0.000001 0.000002 -8.207803 -6.751707 -1.599547 -8.463987 -15.260707 -8.172120 50.205370 -9.878160 -1.423993 -24.955554 -3.222628 11.168962 -0.000004 0.000002 -0.000003 -0.000000 -0.000000 0.000000 8.207800 -6.751707 -1.599545 -13.414913 2.061185 10.533838 52.577058 -8.419495 9.965828 -25.441266 -0.472678 -9.745174 -0.313989 -0.000000 0.000002 0.000000 -0.000000 0.000000 
1.089419 93.327225 -1.780563 -15.527551 12.380962 -0.648385 0.000000 10.181548 0.131520 1.738850 0.321883 -0.367593 3.438242 -0.532434 3.888991 3.432215 -0.571288 3.890054 0.000002 16.740362 -2.049022 3.992120 -0.227199 -3.763042 -0.000003 9.617864 1.684974 0.442957 -0.537651 -17.356798 0.000000 22.037354 7.501073 -0.000000 -0.000000 -0.000001 -4.569998 11.014876 -2.160841 0.963411 1.254826 0.329010 -53.555226 16.586740 70.087515 0.000338 100.493967 -0.000276 55.279921 23.153018 -89.999968 -2.464789 -1.574010 2.681900 23.308065 8.562750 -18.263940 4.637197 -8.634142 -0.225378 -2.646265 -1.527817 1.527812 -1.273763 0.137314 -2.094878 -1.994599 -1.151599 1.151579 0.000000 -0.000006 0.000003 -9.108294 -0.517878 2.259806 0.217145 1.727481 -14.328113 -0.000006 -0.000003 0.000005 0.000012 -0.000000 0.000004 -0.000003 -0.000002 0.000001 -9.532495 -0.000012 0.000002 0.217143 1.727480 -14.328115 -0.000008 0.000003 0.000008 0.000012 -0.000000 0.000004 -0.000002 0.000000 0.000001 -9.103601 -0.043119 -1.865099 0.217145 1.727481 -14.328111 -0.000004 0.000007 0.000067 0.000006 0.000009 0.000000 -0.000002 0.000002 0.000001 -8.076694 -0.486726 -3.806295 0.217145 1.727481 -14.328113 0.000001 -0.000001 0.000010 -0.000000 0.000005 -0.000002 -0.000003 0.000004 0.000001 4.570405 11.014682 -2.160816 1.052426 -2.468287 -10.266409 -30.346875 -6.539303 -47.381835 0.000002 -112.915028 -0.000004 37.899053 -3.337247 89.999921 2.466091 -1.576197 2.681699 8.827668 3.765361 20.604121 3.939047 7.948727 0.746790 2.647878 -1.528755 1.528757 -0.579471 1.575003 2.538712 1.998921 -1.154090 1.154076 0.000001 0.000003 0.000001 9.109313 -0.518022 2.259898 0.051480 -0.842127 6.996083 -0.000002 -0.000005 -0.000018 -0.000002 0.000000 0.000004 -0.000001 -0.000003 0.000005 9.533407 0.000010 -0.000002 0.051723 -0.844059 7.012064 -0.000001 0.001925 -0.015981 0.000000 -0.000001 -0.000006 -0.000001 -0.000003 -0.000000 9.104494 -0.042980 -1.865099 0.051480 -0.842127 6.996083 -0.000002 -0.000000 -0.000233 0.000003 -0.000002 -0.000007 -0.000001 -0.000002 0.000003 8.077815 -0.486891 -3.806303 -0.460622 3.179726 7.516964 -0.018092 -4.054252 -0.511071 0.000000 -0.000001 0.000002 -0.000001 -0.000001 0.000004 -8.207801 -6.751709 -1.599546 -7.573515 -15.986158 -8.628348 50.373728 -9.877921 -1.515382 -25.443145 -3.807893 11.444962 0.000001 0.000005 -0.000003 -0.000000 0.000000 0.000000 8.207798 -6.751702 -1.599548 -12.967908 1.896544 10.266953 52.808243 -8.300898 9.962293 -25.762697 -1.410638 -9.763089 -0.245805 0.000003 0.000000 -0.000000 0.000000 0.000000 
1.251823 94.113647 -1.586285 -14.708339 13.521554 0.109731 -0.000000 10.181554 0.131522 1.417458 0.471214 -0.011308 2.774549 -0.045406 3.991159 2.773884 -0.073916 3.991899 -0.000000 16.740356 -2.049023 4.311691 -0.370873 -3.845860 -0.000006 9.617848 1.684977 1.554745 -1.294316 -17.962972 0.000003 22.037384 7.501071 -0.000001 -0.000002 -0.000001 -4.569999 11.014884 -2.160840 0.935816 1.139280 0.244259 -57.360427 15.970420 74.282358 0.000532 96.676847 -0.000482 59.137294 22.080555 -90.000378 -2.464796 -1.574002 2.681903 20.169111 5.566488 -15.733809 4.637200 -8.634143 -0.225373 -2.646277 -1.527781 1.527814 -1.273760 0.137311 -2.094879 -1.994597 -1.151585 1.151570 -0.000002 -0.000001 -0.000000 -9.108292 -0.517919 2.259793 0.129600 1.338942 -11.057430 -0.000007 -0.000000 0.000004 0.000014 0.000001 0.000004 -0.000002 0.000003 0.000001 -9.532499 -0.000015 -0.000005 0.129600 1.338945 -11.057431 -0.000007 0.000001 0.000005 0.000012 0.000000 0.000005 -0.000000 -0.000003 -0.000000 -9.103607 -0.043153 -1.865114 0.129600 1.338942 -11.057429 -0.000002 0.000009 0.000069 0.000006 0.000008 -0.000003 -0.000002 0.000001 0.000002 -8.076699 -0.486752 -3.806306 0.129598 1.338943 -11.057425 -0.000001 0.000005 0.000012 0.000002 0.000009 -0.000003 -0.000001 0.000002 0.000001 4.570404 11.014680 -2.160813 1.024914 -2.305551 -9.597648 -31.484997 -5.425860 -46.342144 0.000002 -111.642700 0.000038 36.374825 2.695097 89.999367 2.466117 -1.576224 2.681699 2.154290 3.971664 11.652189 3.939046 7.948723 0.746789 2.647884 -1.528733 1.528754 -0.579469 1.575006 2.538716 1.998920 -1.154085 1.154076 -0.000001 0.000003 0.000005 9.109314 -0.518022 2.259900 0.007151 -0.314169 2.604082 -0.000002 -0.000002 -0.000015 -0.000000 0.000002 0.000002 0.000000 -0.000001 0.000002 9.533415 -0.000003 0.000001 0.007236 -0.316095 2.620070 -0.000001 0.001925 -0.015982 0.000002 0.000001 -0.000001 0.000000 -0.000001 0.000000 9.104507 -0.043009 -1.865099 0.007151 -0.314169 2.604082 -0.000001 0.000001 -0.000232 0.000005 -0.000002 -0.000009 0.000000 -0.000000 0.000000 8.077806 -0.486906 -3.806301 -0.195351 3.735058 3.120546 -0.018089 -4.054256 -0.511068 0.000000 -0.000001 0.000002 -0.000000 -0.000001 0.000005 -8.207803 -6.751717 -1.599546 -7.211928 -15.832314 -8.625262 48.221658 -9.810844 -1.867234 -24.425194 -5.221722 11.493939 0.000003 -0.000003 -0.000001 -0.000000 -0.000000 -0.000000 8.207799 -6.751703 -1.599548 -12.895878 2.207813 9.359312 50.466072 -8.265264 9.989381 -24.518839 -2.487828 -9.871593 -0.110486 0.000001 0.000002 -0.000000 -0.000000 0.000000 
1.460285 95.665451 -1.700167 -12.684595 14.337836 0.879185 -0.000001 10.181547 0.131524 1.038081 0.689200 0.284973 1.992302 0.675713 3.761803 1.997051 0.658000 3.762637 -0.000001 16.740339 -2.049019 3.859964 -0.571399 -3.650788 -0.000004 9.617847 1.684975 1.891725 -2.376922 -17.947290 0.000002 22.037384 7.501072 -0.000000 -0.000001 -0.000001 -4.570001 11.014839 -2.160838 0.825118 0.683270 -0.117776 -63.382578 15.476445 76.582868 0.002407 91.521967 -0.002361 60.000029 20.656966 -89.999968 -2.464795 -1.573994 2.681906 16.517979 5.510309 -11.495091 4.637202 -8.634144 -0.225377 -2.646272 -1.527818 1.527814 -1.273760 0.137311 -2.094881 -1.994598 -1.151587 1.151585 0.000003 -0.000005 -0.000000 -9.108295 -0.517880 2.259799 0.044636 0.788233 -6.482129 -0.000008 -0.000001 0.000004 0.000012 0.000003 0.000006 0.000001 -0.000006 -0.000002 -9.532492 -0.000002 -0.000000 0.044636 0.788234 -6.482129 -0.000004 0.000000 0.000004 0.000012 0.000003 0.000005 0.000001 -0.000002 -0.000000 -9.103590 -0.043106 -1.865104 0.044636 0.788233 -6.482129 -0.000005 0.000008 0.000069 0.000005 0.000007 -0.000001 0.000001 0.000003 0.000000 -8.076694 -0.486736 -3.806299 0.044636 0.788233 -6.482129 0.000003 0.000002 0.000010 0.000000 0.000007 -0.000001 -0.000002 -0.000000 -0.000000 4.570402 11.014685 -2.160813 0.964663 -1.774615 -8.873965 -37.040577 -6.713552 -44.696212 -0.000010 -106.592902 0.000000 35.149390 5.833545 88.907172 2.466109 -1.576197 2.681696 -1.506213 3.693749 6.194375 3.939042 7.948724 0.746790 2.647865 -1.528713 1.528746 -0.579473 1.575003 2.538715 1.998917 -1.154091 1.154070 -0.000001 0.000000 0.000003 9.109308 -0.518001 2.259898 0.000003 -0.002957 0.024416 -0.000001 -0.000003 -0.000016 -0.000000 0.000002 0.000001 0.000000 0.000000 0.000000 9.533411 -0.000000 -0.000002 0.000006 -0.004886 0.040406 -0.000001 0.001925 -0.015982 0.000002 -0.000000 -0.000004 -0.000000 0.000000 0.000002 9.104497 -0.042981 -1.865100 0.000003 -0.002957 0.024416 -0.000001 0.000001 -0.000230 0.000004 -0.000002 -0.000006 0.000000 -0.000000 0.000007 8.077808 -0.486897 -3.806304 -0.019820 4.051287 0.535549 -0.018090 -4.054255 -0.511071 0.000000 -0.000000 0.000001 0.000000 -0.000000 0.000003 -8.207802 -6.751708 -1.599542 -7.326648 -14.985532 -8.334054 43.891004 -9.752021 -2.513755 -21.939225 -7.052642 11.391956 -0.000044 -0.000002 -0.000008 -0.000000 0.000000 0.000000 8.207798 -6.751702 -1.599540 -12.938409 3.065833 7.883344 45.594655 -8.331191 10.062446 -21.736169 -3.428826 -10.055276 -0.001447 -0.000001 0.000000 -0.000000 -0.000000 0.000000 
